<?xml version="1.0" encoding="utf-8"?>
<!-- Generator: Adobe Illustrator 19.2.0, SVG Export Plug-In . SVG Version: 6.00 Build 0)  -->
<svg version="1.1" id="Laag_1" xmlns="http://www.w3.org/2000/svg" xmlns:xlink="http://www.w3.org/1999/xlink" x="0px" y="0px"
	 viewBox="0 0 841.9 595.3" style="enable-background:new 0 0 841.9 595.3;" xml:space="preserve">
<style type="text/css">
	.st0{fill:#00665E;}
	.st1{fill:#92BD11;}
</style>
<g>
	<g>
		<path class="st0" d="M295.3,256.5h5v36.8h-4.5L271.2,265v28.3h-4.9v-36.8h4.3l24.8,28.5V256.5z"/>
		<path class="st0" d="M310.4,256.5h5.3v32h16.5v4.8h-21.8V256.5z"/>
		<path class="st0" d="M368.1,256.5h5v36.8h-4.5L344,265v28.3h-4.9v-36.8h4.3l24.8,28.5V256.5z"/>
		<path class="st0" d="M383.1,256.5H404v4.7h-15.6v11.2h15v4.7h-15v11.4h16.1v4.7h-21.3V256.5z"/>
		<path class="st0" d="M409.1,256.5h30.7v4.7H427v32.1h-5.3v-32.1h-12.6V256.5z"/>
		<path class="st0" d="M475.2,293.3h-27.7v-36.5h11v27.7h16.7V293.3z"/>
		<path class="st0" d="M523,293.3h-11.3l-3-7.4h-15.8l-3,7.4h-11.3l16.1-36.5h12.2L523,293.3z M506.2,279.5l-5.3-13.3l-5.4,13.3
			H506.2z"/>
		<path class="st0" d="M563.3,282.9c0,3.1-1.1,5.6-3.2,7.5c-2.1,1.9-5.2,2.8-9,2.8H530v-36.5h17.6c2.3,0,4.3,0.2,6,0.7
			c1.7,0.4,3.1,1,4.1,1.8c1,0.8,1.8,1.7,2.3,2.7c0.5,1,0.8,2.2,0.8,3.4c0,1.3-0.3,2.6-0.8,3.7c-0.5,1.1-1.2,2.1-2,2.8
			c-0.8,0.7-1.6,1.2-2.4,1.5c2.5,1,4.4,2.2,5.7,3.7C562.6,278.6,563.3,280.6,563.3,282.9z M550.5,267.3c0-1.8-0.6-2.9-1.7-3.5
			c-1.2-0.6-3-0.9-5.4-0.9H541v8.7h2.4c2.5,0,4.3-0.3,5.4-0.9C549.9,270.2,550.5,269.1,550.5,267.3z M552.2,282.5
			c0-3.1-2.3-4.7-6.8-4.7H541v9.3h4.5C550,287.1,552.2,285.6,552.2,282.5z"/>
		<path class="st0" d="M598,282.7c0,2.3-0.6,4.3-1.7,5.9c-1.2,1.7-2.8,2.9-4.9,3.8c-2.1,0.9-4.5,1.3-7.2,1.3c-0.8,0-1.7,0-2.8-0.1
			c-1.1-0.1-2.6-0.4-4.4-0.8c-1.8-0.4-3.7-1.1-5.7-1.9v-8.9c1.8,1.1,3.7,2.1,5.4,2.8s3.7,1.1,5.7,1.1c1.9,0,3.1-0.3,3.6-0.9
			c0.6-0.6,0.8-1.2,0.8-1.8c0-1-0.5-1.8-1.4-2.5c-0.9-0.7-2.3-1.4-4.1-2.1c-2-0.8-3.8-1.8-5.3-2.7c-1.5-1-2.7-2.2-3.7-3.7
			c-1-1.5-1.4-3.3-1.4-5.3c0-2,0.5-3.7,1.4-5.3c1-1.6,2.4-2.9,4.4-3.8c2-0.9,4.4-1.4,7.3-1.4c2,0,3.9,0.2,5.6,0.6
			c1.7,0.4,3.2,0.8,4.3,1.3c1.1,0.5,1.9,0.9,2.3,1.2v8.6c-1.5-1.1-3.2-2-5-2.9c-1.8-0.8-3.8-1.3-5.9-1.3c-1.4,0-2.4,0.3-3,0.8
			c-0.6,0.5-0.9,1.2-0.9,1.9c0,0.7,0.3,1.3,0.9,1.9c0.6,0.5,1.7,1.2,3.3,1.9c2.8,1.3,5.1,2.5,6.7,3.6c1.7,1.1,3,2.3,4,3.6
			S598,280.6,598,282.7z"/>
	</g>
	<g>
		<path class="st0" d="M243.9,245.3c-3.3-7.2-8.2-13.6-14.2-18.7c2.4,6.1,3.6,12.6,3.7,19.3C236.8,245.3,240.3,245.1,243.9,245.3z"
			/>
		<path class="st0" d="M170.1,310.9c-12.2,0-23.9-4-33.4-11.4c8.5,19.5,27.9,32.3,49.5,32.3c3.2,0,6.3-0.3,9.5-0.8
			c-5.2-6.5-8.5-14.2-9.6-22.5C180.9,310.1,175.5,310.9,170.1,310.9z"/>
		<path class="st1" d="M228.4,254c-0.7,22.5-15.3,42.4-36.6,49.8c1.1,8.3,4.5,16.2,9.9,22.7c24.5-5.5,42.2-27.5,42.2-52.7
			c0-7-1.3-13.8-3.9-20.3C236.1,253.1,232.2,253.3,228.4,254z"/>
		<path class="st0" d="M189.6,293c-9-3.4-15.4-12.2-15.4-22.4c0-13.2,10.7-24,23.9-24c7.4,0,14.1,3.4,18.5,8.7
			c3-1.4,6.3-2.5,9.7-3.2c0-7.8-1.7-15.4-5-22.4c-9.2-6.6-20.1-10.1-31.4-10.1c-29.8,0-54,24.2-54,54c0,6,1,11.9,2.9,17.6
			c9.6,8.6,22.1,13.4,35,13.4c5.3,0,10.6-0.8,15.7-2.4c-0.1-1.5-0.2-2.9-0.2-4.4C189.3,296.3,189.4,294.6,189.6,293z"/>
		<g>
			<path class="st1" d="M226.2,254.4c-2.9,0.6-5.7,1.6-8.3,2.8c2.6,3.8,4.1,8.5,4.1,13.5c0,0.8,0,1.6-0.1,2.4
				C224.5,267.2,226,260.9,226.2,254.4z"/>
			<path class="st1" d="M198.1,294.6c-2.3,0-4.4-0.3-6.5-0.9c-0.1,1.4-0.2,2.8-0.2,4.3c0,1.2,0.1,2.4,0.2,3.7
				c5.7-2.1,10.9-5,15.4-8.7C204.3,293.9,201.3,294.6,198.1,294.6z"/>
		</g>
		<circle class="st1" cx="198.1" cy="270.6" r="15.8"/>
	</g>
</g>
</svg>
