<?xml version="1.0" encoding="UTF-8" standalone="no"?>
<svg
   xmlns:dc="http://purl.org/dc/elements/1.1/"
   xmlns:cc="http://creativecommons.org/ns#"
   xmlns:rdf="http://www.w3.org/1999/02/22-rdf-syntax-ns#"
   xmlns:svg="http://www.w3.org/2000/svg"
   xmlns="http://www.w3.org/2000/svg"
   xmlns:sodipodi="http://sodipodi.sourceforge.net/DTD/sodipodi-0.dtd"
   xmlns:inkscape="http://www.inkscape.org/namespaces/inkscape"
   inkscape:version="1.0beta1 (32d4812, 2019-09-19)"
   sodipodi:docname="logo_NWO2.svg"
   viewBox="0 0 188.976 306.14133"
   height="306.14133"
   width="188.976"
   xml:space="preserve"
   id="svg10"
   version="1.1">
  <metadata
     id="metadata16">
    <rdf:RDF>
      <cc:Work
         rdf:about="">
        <dc:format>image/svg+xml</dc:format>
        <dc:type
           rdf:resource="http://purl.org/dc/dcmitype/StillImage" />
        <dc:title></dc:title>
      </cc:Work>
    </rdf:RDF>
  </metadata>
  <defs
     id="defs14">
    <linearGradient
       id="linearGradient38"
       spreadMethod="pad"
       gradientTransform="matrix(134.85532,233.57625,233.57625,-134.85532,3.4387031,-1.9847826)"
       gradientUnits="userSpaceOnUse"
       y2="0"
       x2="1"
       y1="0"
       x1="0">
      <stop
         id="stop32"
         offset="0"
         style="stop-opacity:1;stop-color:#0e657d" />
      <stop
         id="stop34"
         offset="0.73696312"
         style="stop-opacity:1;stop-color:#42a8bb" />
      <stop
         id="stop36"
         offset="1"
         style="stop-opacity:1;stop-color:#42a8bb" />
    </linearGradient>
  </defs>
  <sodipodi:namedview
     inkscape:current-layer="svg10"
     inkscape:window-maximized="0"
     inkscape:window-y="23"
     inkscape:window-x="0"
     inkscape:cy="560"
     inkscape:cx="400"
     inkscape:zoom="0.35"
     showgrid="false"
     id="namedview12"
     inkscape:window-height="907"
     inkscape:window-width="1600"
     inkscape:pageshadow="2"
     inkscape:pageopacity="0"
     guidetolerance="10"
     gridtolerance="10"
     objecttolerance="10"
     borderopacity="1"
     inkscape:document-rotation="0"
     bordercolor="#666666"
     pagecolor="#ffffff" />
  <g
     transform="matrix(1.3333333,0,0,-1.3333333,0,306.14133)"
     inkscape:label="NWO logo - RGB"
     inkscape:groupmode="layer"
     id="g18">
    <g
       id="g20">
      <g
         id="g22">
        <g
           id="g28">
          <g
             id="g30">
            <path
               inkscape:connector-curvature="0"
               id="path40"
               style="fill:url(#linearGradient38);stroke:none"
               d="m 104.065,229.606 c 15.249,-7.1 27.726,-18.891 35.745,-34.012 v 0 c 0.681,-1.286 1.316,-2.589 1.922,-3.899 v 0 37.911 z m -104.064,0 v -38.969 c 7.009,15.92 19.058,28.956 34.658,37.232 v 0 c 1.148,0.61 2.308,1.188 3.477,1.737 v 0 z M 38.739,215.148 C 22.919,206.754 11.312,192.704 6.06,175.584 v 0 C 0.806,158.467 2.533,140.322 10.925,124.5 v 0 C 19.318,108.68 33.368,97.073 50.488,91.82 v 0 c 17.12,-5.252 35.264,-3.524 51.084,4.866 v 0 c 15.82,8.393 27.426,22.443 32.679,39.563 v 0 c 1.992,6.497 2.981,13.145 2.981,19.752 v 0 c 0,8.789 -1.747,17.515 -5.201,25.748 v 0 c 1.605,-8.248 1.171,-16.813 -1.364,-25.075 v 0 c -4.069,-13.255 -13.06,-24.135 -25.314,-30.633 v 0 c -7.603,-4.033 -15.899,-6.076 -24.268,-6.076 v 0 c -5.12,0 -10.265,0.765 -15.299,2.307 v 0 c -13.258,4.068 -24.142,13.056 -30.643,25.305 v 0 c -13.414,25.288 -3.751,56.775 21.544,70.189 v 0 c 4.727,2.505 9.723,4.236 14.838,5.194 v 0 c -0.486,0.01 -0.973,0.016 -1.458,0.016 v 0 c -10.805,0 -21.513,-2.623 -31.328,-7.828 m 18.787,-0.35 C 36.443,203.614 28.387,177.362 39.57,156.279 v 0 c 5.418,-10.212 14.489,-17.704 25.54,-21.095 v 0 c 11.05,-3.392 22.763,-2.276 32.978,3.142 v 0 c 10.213,5.417 17.704,14.485 21.095,25.539 v 0 c 3.072,10.014 2.434,20.566 -1.74,30.057 v 0 c 0.953,-5.12 0.668,-10.429 -0.905,-15.552 v 0 c -2.562,-8.358 -8.228,-15.216 -15.952,-19.312 v 0 c -4.789,-2.541 -10.017,-3.831 -15.292,-3.831 v 0 c -3.226,0 -6.47,0.481 -9.64,1.456 v 0 c -8.356,2.566 -15.215,8.228 -19.313,15.95 v 0 c -8.453,15.941 -2.363,35.79 13.576,44.245 v 0 c 2.542,1.349 5.183,2.323 7.861,2.951 v 0 c -0.013,0 -0.027,0 -0.04,0 v 0 c -6.836,0 -13.764,-1.612 -20.212,-5.031 m 18.071,-1.433 c -4.249,-2.254 -7.622,-5.516 -9.994,-9.335 v 0 c 2.548,1.65 5.577,2.617 8.839,2.617 v 0 c 9.004,0 16.306,-7.301 16.306,-16.308 v 0 c 0,-9.004 -7.302,-16.306 -16.306,-16.306 v 0 c -3.487,0 -6.71,1.102 -9.36,2.966 v 0 c 3.335,-5.835 8.677,-10.121 15.136,-12.105 v 0 c 6.727,-2.063 13.856,-1.382 20.072,1.914 v 0 c 6.22,3.298 10.782,8.821 12.845,15.55 v 0 c 2.066,6.727 1.386,13.857 -1.912,20.076 v 0 c -4.727,8.91 -13.876,13.998 -23.323,13.999 v 0 c -4.161,0 -8.378,-0.987 -12.303,-3.068 M 0.001,0.001 H 10.979 V 41.09 h 7.296 L 35.893,17.305 V 41.09 h 8.919 V 10e-4 H 57.429 L 47.157,41.09 h 10.146 l 5.474,-24.083 7.404,24.202 h 7.527 l 7.405,-24.427 5.53,24.308 h 10 L 90.371,0.001 h 22.738 C 104.695,3.14 99.279,11.13 99.279,20.495 v 0 0.121 c 0,12.094 9.13,21.942 22.001,21.942 v 0 c 9.75,0 17.34,-5.587 20.452,-13.551 v 0 97.579 c -7.075,-15.44 -18.933,-28.079 -34.188,-36.173 v 0 C 69.659,70.312 22.489,84.792 2.395,122.688 v 0 c -0.866,1.631 -1.653,3.29 -2.394,4.96 v 0 z m 108.645,20.737 v -0.122 c 0,-7.292 5.245,-13.141 12.634,-13.141 v 0 c 7.388,0 12.683,5.727 12.683,13.02 v 0 0.121 c 0,7.293 -5.414,12.974 -12.803,12.974 v 0 c -7.388,0 -12.514,-5.559 -12.514,-12.852 M 19.955,0.001 H 37.86 l -17.905,24.23 z m 45.925,0 h 15.984 l -8.033,24.207 z m 63.319,0 h 12.533 V 12.363 C 139.525,6.688 135.059,2.18 129.199,0.001" />
          </g>
        </g>
      </g>
    </g>
  </g>
</svg>
